ply
format ascii 1.0
comment File exported by Rhinoceros Version 5.0
element vertex 132
property float x
property float y
property float z
element face 120
property list uchar uint vertex_index
end_header
16.675783 13.678496 20.386688
21.671223 1.424850 20.386688
18.510107 -11.424805 20.386688
8.399873 -19.962336 20.386688
-4.797714 -20.926697 20.386688
-16.041622 -13.949535 20.386688
-21.037064 -1.695889 20.386688
-17.875946 11.153766 20.386688
-7.765712 19.691298 20.386688
5.431874 20.655659 20.386688
16.675783 13.678496 18.348019
21.671223 1.424850 18.348019
18.510107 -11.424805 18.348019
8.399873 -19.962336 18.348019
-4.797714 -20.926697 18.348019
-16.041622 -13.949535 18.348019
-21.037064 -1.695889 18.348019
-17.875946 11.153766 18.348019
-7.765712 19.691298 18.348019
5.431874 20.655659 18.348019
16.675783 13.678496 16.309351
21.671223 1.424850 16.309351
18.510107 -11.424805 16.309351
8.399873 -19.962336 16.309351
-4.797714 -20.926697 16.309351
-16.041622 -13.949535 16.309351
-21.037064 -1.695889 16.309351
-17.875946 11.153766 16.309351
-7.765712 19.691298 16.309351
5.431874 20.655659 16.309351
16.675783 13.678496 14.270681
21.671223 1.424850 14.270681
18.510107 -11.424805 14.270681
8.399873 -19.962336 14.270681
-4.797714 -20.926697 14.270681
-16.041622 -13.949535 14.270681
-21.037064 -1.695889 14.270681
-17.875946 11.153766 14.270681
-7.765712 19.691298 14.270681
5.431874 20.655659 14.270681
16.675783 13.678496 12.232013
21.671223 1.424850 12.232013
18.510107 -11.424805 12.232013
8.399873 -19.962336 12.232013
-4.797714 -20.926697 12.232013
-16.041622 -13.949535 12.232013
-21.037064 -1.695889 12.232013
-17.875946 11.153766 12.232013
-7.765712 19.691298 12.232013
5.431874 20.655659 12.232013
16.675783 13.678496 10.193344
21.671223 1.424850 10.193344
18.510107 -11.424805 10.193344
8.399873 -19.962336 10.193344
-4.797714 -20.926697 10.193344
-16.041622 -13.949535 10.193344
-21.037064 -1.695889 10.193344
-17.875946 11.153766 10.193344
-7.765712 19.691298 10.193344
5.431874 20.655659 10.193344
16.675783 13.678496 8.154675
21.671223 1.424850 8.154675
18.510107 -11.424805 8.154675
8.399873 -19.962336 8.154675
-4.797714 -20.926697 8.154675
-16.041622 -13.949535 8.154675
-21.037064 -1.695889 8.154675
-17.875946 11.153766 8.154675
-7.765712 19.691298 8.154675
5.431874 20.655659 8.154675
16.675783 13.678496 6.116006
21.671223 1.424850 6.116006
18.510107 -11.424805 6.116006
8.399873 -19.962336 6.116006
-4.797714 -20.926697 6.116006
-16.041622 -13.949535 6.116006
-21.037064 -1.695889 6.116006
-17.875946 11.153766 6.116006
-7.765712 19.691298 6.116006
5.431874 20.655659 6.116006
16.675783 13.678496 4.077338
21.671223 1.424850 4.077338
18.510107 -11.424805 4.077338
8.399873 -19.962336 4.077338
-4.797714 -20.926697 4.077338
-16.041622 -13.949535 4.077338
-21.037064 -1.695889 4.077338
-17.875946 11.153766 4.077338
-7.765712 19.691298 4.077338
5.431874 20.655659 4.077338
16.675783 13.678496 2.038669
21.671223 1.424850 2.038669
18.510107 -11.424805 2.038669
8.399873 -19.962336 2.038669
-4.797714 -20.926697 2.038669
-16.041622 -13.949535 2.038669
-21.037064 -1.695889 2.038669
-17.875946 11.153766 2.038669
-7.765712 19.691298 2.038669
5.431874 20.655659 2.038669
16.675783 13.678496 0.000000
21.671223 1.424850 0.000000
18.510107 -11.424805 0.000000
8.399873 -19.962336 0.000000
-4.797714 -20.926697 0.000000
-16.041622 -13.949535 0.000000
-21.037064 -1.695889 0.000000
-17.875946 11.153766 0.000000
-7.765712 19.691298 0.000000
5.431874 20.655659 0.000000
0.317080 -0.135520 20.386688
16.675783 13.678496 20.386688
21.671223 1.424850 20.386688
18.510107 -11.424805 20.386688
8.399873 -19.962336 20.386688
-4.797714 -20.926697 20.386688
-16.041622 -13.949535 20.386688
-21.037064 -1.695889 20.386688
-17.875946 11.153766 20.386688
-7.765712 19.691298 20.386688
5.431874 20.655659 20.386688
0.317080 -0.135520 0.000000
16.675783 13.678496 0.000000
21.671223 1.424850 0.000000
18.510107 -11.424805 0.000000
8.399873 -19.962336 0.000000
-4.797714 -20.926697 0.000000
-16.041622 -13.949535 0.000000
-21.037064 -1.695889 0.000000
-17.875946 11.153766 0.000000
-7.765712 19.691298 0.000000
5.431874 20.655659 0.000000
4 0 1 11 10
4 1 2 12 11
4 2 3 13 12
4 3 4 14 13
4 4 5 15 14
4 5 6 16 15
4 6 7 17 16
4 7 8 18 17
4 8 9 19 18
4 9 0 10 19
4 10 11 21 20
4 11 12 22 21
4 12 13 23 22
4 13 14 24 23
4 14 15 25 24
4 15 16 26 25
4 16 17 27 26
4 17 18 28 27
4 18 19 29 28
4 19 10 20 29
4 20 21 31 30
4 21 22 32 31
4 22 23 33 32
4 23 24 34 33
4 24 25 35 34
4 25 26 36 35
4 26 27 37 36
4 27 28 38 37
4 28 29 39 38
4 29 20 30 39
4 30 31 41 40
4 31 32 42 41
4 32 33 43 42
4 33 34 44 43
4 34 35 45 44
4 35 36 46 45
4 36 37 47 46
4 37 38 48 47
4 38 39 49 48
4 39 30 40 49
4 40 41 51 50
4 41 42 52 51
4 42 43 53 52
4 43 44 54 53
4 44 45 55 54
4 45 46 56 55
4 46 47 57 56
4 47 48 58 57
4 48 49 59 58
4 49 40 50 59
4 50 51 61 60
4 51 52 62 61
4 52 53 63 62
4 53 54 64 63
4 54 55 65 64
4 55 56 66 65
4 56 57 67 66
4 57 58 68 67
4 58 59 69 68
4 59 50 60 69
4 60 61 71 70
4 61 62 72 71
4 62 63 73 72
4 63 64 74 73
4 64 65 75 74
4 65 66 76 75
4 66 67 77 76
4 67 68 78 77
4 68 69 79 78
4 69 60 70 79
4 70 71 81 80
4 71 72 82 81
4 72 73 83 82
4 73 74 84 83
4 74 75 85 84
4 75 76 86 85
4 76 77 87 86
4 77 78 88 87
4 78 79 89 88
4 79 70 80 89
4 80 81 91 90
4 81 82 92 91
4 82 83 93 92
4 83 84 94 93
4 84 85 95 94
4 85 86 96 95
4 86 87 97 96
4 87 88 98 97
4 88 89 99 98
4 89 80 90 99
4 90 91 101 100
4 91 92 102 101
4 92 93 103 102
4 93 94 104 103
4 94 95 105 104
4 95 96 106 105
4 96 97 107 106
4 97 98 108 107
4 98 99 109 108
4 99 90 100 109
3 110 112 111
3 110 113 112
3 110 114 113
3 110 115 114
3 110 116 115
3 110 117 116
3 110 118 117
3 110 119 118
3 110 120 119
3 110 111 120
3 121 122 123
3 121 123 124
3 121 124 125
3 121 125 126
3 121 126 127
3 121 127 128
3 121 128 129
3 121 129 130
3 121 130 131
3 121 131 122
