ply
format ascii 1.0
comment File exported by Rhinoceros Version 5.0
element vertex 132
property float x
property float y
property float z
element face 220
property list uchar uint vertex_index
end_header
16.675783 13.678496 20.386688
21.671223 1.424850 20.386688
18.510107 -11.424805 20.386688
8.399873 -19.962336 20.386688
-4.797714 -20.926697 20.386688
-16.041622 -13.949535 20.386688
-21.037064 -1.695889 20.386688
-17.875946 11.153766 20.386688
-7.765712 19.691298 20.386688
5.431874 20.655659 20.386688
16.675783 13.678496 18.348019
21.671223 1.424850 18.348019
18.510107 -11.424805 18.348019
8.399873 -19.962336 18.348019
-4.797714 -20.926697 18.348019
-16.041622 -13.949535 18.348019
-21.037064 -1.695889 18.348019
-17.875946 11.153766 18.348019
-7.765712 19.691298 18.348019
5.431874 20.655659 18.348019
16.675783 13.678496 16.309351
21.671223 1.424850 16.309351
18.510107 -11.424805 16.309351
8.399873 -19.962336 16.309351
-4.797714 -20.926697 16.309351
-16.041622 -13.949535 16.309351
-21.037064 -1.695889 16.309351
-17.875946 11.153766 16.309351
-7.765712 19.691298 16.309351
5.431874 20.655659 16.309351
16.675783 13.678496 14.270681
21.671223 1.424850 14.270681
18.510107 -11.424805 14.270681
8.399873 -19.962336 14.270681
-4.797714 -20.926697 14.270681
-16.041622 -13.949535 14.270681
-21.037064 -1.695889 14.270681
-17.875946 11.153766 14.270681
-7.765712 19.691298 14.270681
5.431874 20.655659 14.270681
16.675783 13.678496 12.232013
21.671223 1.424850 12.232013
18.510107 -11.424805 12.232013
8.399873 -19.962336 12.232013
-4.797714 -20.926697 12.232013
-16.041622 -13.949535 12.232013
-21.037064 -1.695889 12.232013
-17.875946 11.153766 12.232013
-7.765712 19.691298 12.232013
5.431874 20.655659 12.232013
16.675783 13.678496 10.193344
21.671223 1.424850 10.193344
18.510107 -11.424805 10.193344
8.399873 -19.962336 10.193344
-4.797714 -20.926697 10.193344
-16.041622 -13.949535 10.193344
-21.037064 -1.695889 10.193344
-17.875946 11.153766 10.193344
-7.765712 19.691298 10.193344
5.431874 20.655659 10.193344
16.675783 13.678496 8.154675
21.671223 1.424850 8.154675
18.510107 -11.424805 8.154675
8.399873 -19.962336 8.154675
-4.797714 -20.926697 8.154675
-16.041622 -13.949535 8.154675
-21.037064 -1.695889 8.154675
-17.875946 11.153766 8.154675
-7.765712 19.691298 8.154675
5.431874 20.655659 8.154675
16.675783 13.678496 6.116006
21.671223 1.424850 6.116006
18.510107 -11.424805 6.116006
8.399873 -19.962336 6.116006
-4.797714 -20.926697 6.116006
-16.041622 -13.949535 6.116006
-21.037064 -1.695889 6.116006
-17.875946 11.153766 6.116006
-7.765712 19.691298 6.116006
5.431874 20.655659 6.116006
16.675783 13.678496 4.077338
21.671223 1.424850 4.077338
18.510107 -11.424805 4.077338
8.399873 -19.962336 4.077338
-4.797714 -20.926697 4.077338
-16.041622 -13.949535 4.077338
-21.037064 -1.695889 4.077338
-17.875946 11.153766 4.077338
-7.765712 19.691298 4.077338
5.431874 20.655659 4.077338
16.675783 13.678496 2.038669
21.671223 1.424850 2.038669
18.510107 -11.424805 2.038669
8.399873 -19.962336 2.038669
-4.797714 -20.926697 2.038669
-16.041622 -13.949535 2.038669
-21.037064 -1.695889 2.038669
-17.875946 11.153766 2.038669
-7.765712 19.691298 2.038669
5.431874 20.655659 2.038669
16.675783 13.678496 0.000000
21.671223 1.424850 0.000000
18.510107 -11.424805 0.000000
8.399873 -19.962336 0.000000
-4.797714 -20.926697 0.000000
-16.041622 -13.949535 0.000000
-21.037064 -1.695889 0.000000
-17.875946 11.153766 0.000000
-7.765712 19.691298 0.000000
5.431874 20.655659 0.000000
0.317080 -0.135520 20.386688
16.675783 13.678496 20.386688
21.671223 1.424850 20.386688
18.510107 -11.424805 20.386688
8.399873 -19.962336 20.386688
-4.797714 -20.926697 20.386688
-16.041622 -13.949535 20.386688
-21.037064 -1.695889 20.386688
-17.875946 11.153766 20.386688
-7.765712 19.691298 20.386688
5.431874 20.655659 20.386688
0.317080 -0.135520 0.000000
16.675783 13.678496 0.000000
21.671223 1.424850 0.000000
18.510107 -11.424805 0.000000
8.399873 -19.962336 0.000000
-4.797714 -20.926697 0.000000
-16.041622 -13.949535 0.000000
-21.037064 -1.695889 0.000000
-17.875946 11.153766 0.000000
-7.765712 19.691298 0.000000
5.431874 20.655659 0.000000
3 0 1 11
3 1 2 12
3 2 3 13
3 3 4 14
3 4 5 15
3 5 6 16
3 6 7 17
3 7 8 18
3 8 9 19
3 9 0 10
3 10 11 21
3 11 12 22
3 12 13 23
3 13 14 24
3 14 15 25
3 15 16 26
3 16 17 27
3 17 18 28
3 18 19 29
3 19 10 20
3 20 21 31
3 21 22 32
3 22 23 33
3 23 24 34
3 24 25 35
3 25 26 36
3 26 27 37
3 27 28 38
3 28 29 39
3 29 20 30
3 30 31 41
3 31 32 42
3 32 33 43
3 33 34 44
3 34 35 45
3 35 36 46
3 36 37 47
3 37 38 48
3 38 39 49
3 39 30 40
3 40 41 51
3 41 42 52
3 42 43 53
3 43 44 54
3 44 45 55
3 45 46 56
3 46 47 57
3 47 48 58
3 48 49 59
3 49 40 50
3 50 51 61
3 51 52 62
3 52 53 63
3 53 54 64
3 54 55 65
3 55 56 66
3 56 57 67
3 57 58 68
3 58 59 69
3 59 50 60
3 60 61 71
3 61 62 72
3 62 63 73
3 63 64 74
3 64 65 75
3 65 66 76
3 66 67 77
3 67 68 78
3 68 69 79
3 69 60 70
3 70 71 81
3 71 72 82
3 72 73 83
3 73 74 84
3 74 75 85
3 75 76 86
3 76 77 87
3 77 78 88
3 78 79 89
3 79 70 80
3 80 81 91
3 81 82 92
3 82 83 93
3 83 84 94
3 84 85 95
3 85 86 96
3 86 87 97
3 87 88 98
3 88 89 99
3 89 80 90
3 90 91 101
3 91 92 102
3 92 93 103
3 93 94 104
3 94 95 105
3 95 96 106
3 96 97 107
3 97 98 108
3 98 99 109
3 99 90 100
3 110 112 111
3 110 113 112
3 110 114 113
3 110 115 114
3 110 116 115
3 110 117 116
3 110 118 117
3 110 119 118
3 110 120 119
3 110 111 120
3 121 122 123
3 121 123 124
3 121 124 125
3 121 125 126
3 121 126 127
3 121 127 128
3 121 128 129
3 121 129 130
3 121 130 131
3 121 131 122
3 0 11 10
3 1 12 11
3 2 13 12
3 3 14 13
3 4 15 14
3 5 16 15
3 6 17 16
3 7 18 17
3 8 19 18
3 9 10 19
3 10 21 20
3 11 22 21
3 12 23 22
3 13 24 23
3 14 25 24
3 15 26 25
3 16 27 26
3 17 28 27
3 18 29 28
3 19 20 29
3 20 31 30
3 21 32 31
3 22 33 32
3 23 34 33
3 24 35 34
3 25 36 35
3 26 37 36
3 27 38 37
3 28 39 38
3 29 30 39
3 30 41 40
3 31 42 41
3 32 43 42
3 33 44 43
3 34 45 44
3 35 46 45
3 36 47 46
3 37 48 47
3 38 49 48
3 39 40 49
3 40 51 50
3 41 52 51
3 42 53 52
3 43 54 53
3 44 55 54
3 45 56 55
3 46 57 56
3 47 58 57
3 48 59 58
3 49 50 59
3 50 61 60
3 51 62 61
3 52 63 62
3 53 64 63
3 54 65 64
3 55 66 65
3 56 67 66
3 57 68 67
3 58 69 68
3 59 60 69
3 60 71 70
3 61 72 71
3 62 73 72
3 63 74 73
3 64 75 74
3 65 76 75
3 66 77 76
3 67 78 77
3 68 79 78
3 69 70 79
3 70 81 80
3 71 82 81
3 72 83 82
3 73 84 83
3 74 85 84
3 75 86 85
3 76 87 86
3 77 88 87
3 78 89 88
3 79 80 89
3 80 91 90
3 81 92 91
3 82 93 92
3 83 94 93
3 84 95 94
3 85 96 95
3 86 97 96
3 87 98 97
3 88 99 98
3 89 90 99
3 90 101 100
3 91 102 101
3 92 103 102
3 93 104 103
3 94 105 104
3 95 106 105
3 96 107 106
3 97 108 107
3 98 109 108
3 99 100 109
