ply
format ascii 1.0
comment File exported by Rhinoceros Version 5.0
element vertex 121
property float x
property float y
property float z
element face 100
property list uchar uint vertex_index
end_header
-39.307335 -36.124664 0.000000
-31.491508 -36.124664 0.000000
-23.675684 -36.124664 0.000000
-15.859859 -36.124664 0.000000
-8.044035 -36.124664 0.000000
-0.228210 -36.124664 0.000000
7.587615 -36.124664 0.000000
15.403440 -36.124664 0.000000
23.219263 -36.124664 0.000000
31.035088 -36.124664 0.000000
38.850914 -36.124664 0.000000
-39.307335 -29.072247 0.000000
-31.491508 -29.072247 0.000000
-23.675684 -29.072247 0.000000
-15.859859 -29.072247 0.000000
-8.044035 -29.072247 0.000000
-0.228210 -29.072247 0.000000
7.587615 -29.072247 0.000000
15.403440 -29.072247 0.000000
23.219263 -29.072247 0.000000
31.035088 -29.072247 0.000000
38.850914 -29.072247 0.000000
-39.307335 -22.019829 0.000000
-31.491508 -22.019829 0.000000
-23.675684 -22.019829 0.000000
-15.859859 -22.019829 0.000000
-8.044035 -22.019829 0.000000
-0.228210 -22.019829 0.000000
7.587615 -22.019829 0.000000
15.403440 -22.019829 0.000000
23.219263 -22.019829 0.000000
31.035088 -22.019829 0.000000
38.850914 -22.019829 0.000000
-39.307335 -14.967410 0.000000
-31.491508 -14.967410 0.000000
-23.675684 -14.967410 0.000000
-15.859859 -14.967410 0.000000
-8.044035 -14.967410 0.000000
-0.228210 -14.967410 0.000000
7.587615 -14.967410 0.000000
15.403440 -14.967410 0.000000
23.219263 -14.967410 0.000000
31.035088 -14.967410 0.000000
38.850914 -14.967410 0.000000
-39.307335 -7.914991 0.000000
-31.491508 -7.914991 0.000000
-23.675684 -7.914991 0.000000
-15.859859 -7.914991 0.000000
-8.044035 -7.914991 0.000000
-0.228210 -7.914991 0.000000
7.587615 -7.914991 0.000000
15.403440 -7.914991 0.000000
23.219263 -7.914991 0.000000
31.035088 -7.914991 0.000000
38.850914 -7.914991 0.000000
-39.307335 -0.862573 0.000000
-31.491508 -0.862573 0.000000
-23.675684 -0.862573 0.000000
-15.859859 -0.862573 0.000000
-8.044035 -0.862573 0.000000
-0.228210 -0.862573 0.000000
7.587615 -0.862573 0.000000
15.403440 -0.862573 0.000000
23.219263 -0.862573 0.000000
31.035088 -0.862573 0.000000
38.850914 -0.862573 0.000000
-39.307335 6.189846 0.000000
-31.491508 6.189846 0.000000
-23.675684 6.189846 0.000000
-15.859859 6.189846 0.000000
-8.044035 6.189846 0.000000
-0.228210 6.189846 0.000000
7.587615 6.189846 0.000000
15.403440 6.189846 0.000000
23.219263 6.189846 0.000000
31.035088 6.189846 0.000000
38.850914 6.189846 0.000000
-39.307335 13.242264 0.000000
-31.491508 13.242264 0.000000
-23.675684 13.242264 0.000000
-15.859859 13.242264 0.000000
-8.044035 13.242264 0.000000
-0.228210 13.242264 0.000000
7.587615 13.242264 0.000000
15.403440 13.242264 0.000000
23.219263 13.242264 0.000000
31.035088 13.242264 0.000000
38.850914 13.242264 0.000000
-39.307335 20.294683 0.000000
-31.491508 20.294683 0.000000
-23.675684 20.294683 0.000000
-15.859859 20.294683 0.000000
-8.044035 20.294683 0.000000
-0.228210 20.294683 0.000000
7.587615 20.294683 0.000000
15.403440 20.294683 0.000000
23.219263 20.294683 0.000000
31.035088 20.294683 0.000000
38.850914 20.294683 0.000000
-39.307335 27.347101 0.000000
-31.491508 27.347101 0.000000
-23.675684 27.347101 0.000000
-15.859859 27.347101 0.000000
-8.044035 27.347101 0.000000
-0.228210 27.347101 0.000000
7.587615 27.347101 0.000000
15.403440 27.347101 0.000000
23.219263 27.347101 0.000000
31.035088 27.347101 0.000000
38.850914 27.347101 0.000000
-39.307335 34.399521 0.000000
-31.491508 34.399521 0.000000
-23.675684 34.399521 0.000000
-15.859859 34.399521 0.000000
-8.044035 34.399521 0.000000
-0.228210 34.399521 0.000000
7.587615 34.399521 0.000000
15.403440 34.399521 0.000000
23.219263 34.399521 0.000000
31.035088 34.399521 0.000000
38.850914 34.399521 0.000000
4 0 1 12 11
4 1 2 13 12
4 2 3 14 13
4 3 4 15 14
4 4 5 16 15
4 5 6 17 16
4 6 7 18 17
4 7 8 19 18
4 8 9 20 19
4 9 10 21 20
4 11 12 23 22
4 12 13 24 23
4 13 14 25 24
4 14 15 26 25
4 15 16 27 26
4 16 17 28 27
4 17 18 29 28
4 18 19 30 29
4 19 20 31 30
4 20 21 32 31
4 22 23 34 33
4 23 24 35 34
4 24 25 36 35
4 25 26 37 36
4 26 27 38 37
4 27 28 39 38
4 28 29 40 39
4 29 30 41 40
4 30 31 42 41
4 31 32 43 42
4 33 34 45 44
4 34 35 46 45
4 35 36 47 46
4 36 37 48 47
4 37 38 49 48
4 38 39 50 49
4 39 40 51 50
4 40 41 52 51
4 41 42 53 52
4 42 43 54 53
4 44 45 56 55
4 45 46 57 56
4 46 47 58 57
4 47 48 59 58
4 48 49 60 59
4 49 50 61 60
4 50 51 62 61
4 51 52 63 62
4 52 53 64 63
4 53 54 65 64
4 55 56 67 66
4 56 57 68 67
4 57 58 69 68
4 58 59 70 69
4 59 60 71 70
4 60 61 72 71
4 61 62 73 72
4 62 63 74 73
4 63 64 75 74
4 64 65 76 75
4 66 67 78 77
4 67 68 79 78
4 68 69 80 79
4 69 70 81 80
4 70 71 82 81
4 71 72 83 82
4 72 73 84 83
4 73 74 85 84
4 74 75 86 85
4 75 76 87 86
4 77 78 89 88
4 78 79 90 89
4 79 80 91 90
4 80 81 92 91
4 81 82 93 92
4 82 83 94 93
4 83 84 95 94
4 84 85 96 95
4 85 86 97 96
4 86 87 98 97
4 88 89 100 99
4 89 90 101 100
4 90 91 102 101
4 91 92 103 102
4 92 93 104 103
4 93 94 105 104
4 94 95 106 105
4 95 96 107 106
4 96 97 108 107
4 97 98 109 108
4 99 100 111 110
4 100 101 112 111
4 101 102 113 112
4 102 103 114 113
4 103 104 115 114
4 104 105 116 115
4 105 106 117 116
4 106 107 118 117
4 107 108 119 118
4 108 109 120 119
